<svg width="32" height="32" viewBox="0 0 32 32" fill="none" xmlns="http://www.w3.org/2000/svg">
<rect width="32" height="32" fill="#325693"/>
<path d="M13.4931 3.0117C13.3351 3.00585 13.1754 3.00176 13.0133 3.00176C12.8419 3.00176 12.6728 3.00585 12.5054 3.0117H12.358V3.01755C4.15546 3.3809 1 10.5613 1 16.5884C1 23.9964 5.45732 29.3934 11.9063 29.7298V29.7386H12.1959C12.313 29.7422 12.43 29.7439 12.547 29.7439C12.6319 29.7439 12.7144 29.7404 12.798 29.7386H15.7236C15.8406 29.7422 15.9576 29.7439 16.0746 29.7439C16.1594 29.7439 16.2419 29.7404 16.3256 29.7386H19.0902C19.3137 29.7509 19.5396 29.7579 19.7684 29.7579C26.1846 29.7579 30.113 25.3855 30.9866 19.1933H31V18.6422H23.0671V19.1249H23.0607C22.4458 23.5441 20.1288 27.1057 16.2039 28.4514C11.5307 26.7956 8.9352 21.8866 8.9352 16.6007C8.9352 12.1709 10.9655 6.13849 16.5555 4.29074C20.0738 5.49956 22.2416 8.43093 22.4885 11.2593H22.4926V11.8081H30.4266V11.257H30.4231C30.306 8.11849 26.9985 3.04388 20.2915 3.01463V3.00995H17.0195C16.8616 3.0041 16.7024 3 16.5397 3C16.3771 3 16.1998 3.0041 16.0319 3.00995L13.4931 3.0117ZM1.71499 16.5861C1.71499 11.4793 4.41291 4.24042 12.1538 3.74308C6.70827 5.76929 4.52642 11.5765 4.52642 16.5861C4.52642 22.6004 7.46012 27.2812 12.0105 29.0184C5.44269 28.7177 1.71499 22.9245 1.71499 16.5884V16.5861ZM30.2721 19.1933C29.4905 24.6763 26.0752 28.8294 20.2247 29.0365C24.1835 27.5627 26.6229 23.9093 27.2916 19.1974L30.2721 19.1933ZM23.7652 19.1933H26.5737C25.8517 24.2211 22.9121 28.1285 17.9083 28.8914C17.7113 28.8583 17.5163 28.8193 17.3232 28.7744C20.9169 27.1642 23.1327 23.6536 23.7652 19.1956V19.1933ZM8.22016 16.6025C8.22016 22.3277 10.883 26.8518 15.07 28.7668C14.8336 28.8183 14.5924 28.8626 14.3462 28.8996C8.52206 27.9956 5.24141 22.5308 5.24141 16.5884C5.24141 11.6993 7.71404 4.8577 14.7201 3.84489C14.9346 3.87727 15.1453 3.91627 15.352 3.96191C10.2686 6.14552 8.22016 11.7479 8.22016 16.6025ZM23.2035 11.2587C23.1239 8.96045 21.3277 5.61424 17.7328 3.97771C17.9405 3.93441 18.1517 3.89638 18.3682 3.86419C22.8893 4.59792 25.7288 7.99678 26.0149 11.2587H23.2035ZM29.7069 11.2587H26.7299C26.6462 8.84284 24.6669 5.2702 20.6952 3.74074C25.9997 3.9467 29.3851 7.68375 29.7069 11.2587Z" fill="white"/>
<path d="M11.4616 16.3807C11.4616 17.2783 11.7278 18.1558 12.2266 18.9022C12.7253 19.6486 13.4341 20.2303 14.2634 20.5738C15.0927 20.9174 16.0053 21.0072 16.8857 20.8321C17.7661 20.657 18.5748 20.2247 19.2096 19.59C19.8443 18.9552 20.2766 18.1465 20.4517 17.2661C20.6268 16.3857 20.537 15.4732 20.1935 14.6438C19.8499 13.8145 19.2682 13.1056 18.5218 12.6069C17.7754 12.1082 16.898 11.842 16.0003 11.842C14.7965 11.842 13.6421 12.3202 12.7909 13.1714C11.9398 14.0225 11.4616 15.1769 11.4616 16.3807ZM19.6595 16.3316C19.6595 17.0686 19.441 17.7891 19.0315 18.4019C18.622 19.0147 18.04 19.4923 17.3591 19.7744C16.6781 20.0565 15.9288 20.1302 15.206 19.9864C14.4831 19.8427 13.8191 19.4877 13.2979 18.9666C12.7768 18.4454 12.4218 17.7814 12.2781 17.0586C12.1343 16.3356 12.2081 15.5864 12.4901 14.9054C12.7721 14.2245 13.2498 13.6425 13.8627 13.2331C14.4755 12.8236 15.1959 12.605 15.933 12.605C16.4225 12.6048 16.9072 12.701 17.3595 12.8882C17.8118 13.0754 18.2228 13.3499 18.569 13.6959C18.9152 14.0419 19.1897 14.4529 19.3771 14.9051C19.5644 15.3573 19.6608 15.842 19.6606 16.3316H19.6595Z" fill="white"/>
</svg>
