<svg width="22" height="22" viewBox="0 0 22 22" fill="none" xmlns="http://www.w3.org/2000/svg">
<path d="M5.57863 21.9222C4.27028 21.8627 3.55954 21.645 3.08681 21.4606C2.46043 21.2167 2.01385 20.9264 1.54373 20.4569C1.07362 19.9875 0.782655 19.5409 0.540078 18.9145C0.355693 18.4418 0.137962 17.731 0.0784617 16.4227C0.0130769 15.0084 0 14.5841 0 11.001C0 7.4179 0.0143846 6.9942 0.0778078 5.57863C0.137308 4.27028 0.356347 3.56085 0.539424 3.08681C0.783309 2.46043 1.07427 2.01385 1.54308 1.54308C2.01254 1.07362 2.45912 0.782001 3.08616 0.539424C3.55889 0.355039 4.26962 0.137308 5.57797 0.0778078C6.9929 0.0130769 7.4179 0 10.9997 0C14.5828 0 15.0065 0.0143846 16.422 0.0778078C17.7304 0.137308 18.4398 0.356347 18.9138 0.539424C19.5402 0.782001 19.9868 1.07362 20.4569 1.54308C20.927 2.01254 21.2167 2.45977 21.4606 3.08616C21.645 3.55889 21.8627 4.26962 21.9222 5.57797C21.9869 6.99355 22 7.41724 22 11.0003C22 14.5821 21.9869 15.0071 21.9222 16.4227C21.8627 17.731 21.6437 18.4418 21.4606 18.9145C21.2167 19.5409 20.9264 19.9875 20.4569 20.4569C19.9875 20.9264 19.5402 21.2167 18.9138 21.4606C18.4411 21.645 17.7304 21.8627 16.422 21.9222C15.0078 21.9869 14.5828 22 10.9997 22C7.4179 22 6.9929 21.9876 5.57863 21.9222" fill="url(#paint0_radial)"/>
<path d="M5.57863 21.9222C4.27028 21.8627 3.55954 21.645 3.08681 21.4606C2.46043 21.2167 2.01385 20.9264 1.54373 20.4569C1.07362 19.9875 0.782655 19.5409 0.540078 18.9145C0.355693 18.4418 0.137962 17.731 0.0784617 16.4227C0.0130769 15.0084 0 14.5841 0 11.001C0 7.4179 0.0143846 6.9942 0.0778078 5.57863C0.137308 4.27028 0.356347 3.56085 0.539424 3.08681C0.783309 2.46043 1.07427 2.01385 1.54308 1.54308C2.01254 1.07362 2.45912 0.782001 3.08616 0.539424C3.55889 0.355039 4.26962 0.137308 5.57797 0.0778078C6.9929 0.0130769 7.4179 0 10.9997 0C14.5828 0 15.0064 0.0143846 16.422 0.0778078C17.7304 0.137308 18.4398 0.356347 18.9138 0.539424C19.5402 0.782001 19.9868 1.07362 20.4569 1.54308C20.927 2.01254 21.2167 2.45977 21.4606 3.08616C21.645 3.55889 21.8627 4.26962 21.9222 5.57797C21.9869 6.99355 22 7.41724 22 11.0003C22 14.5821 21.9869 15.0071 21.9222 16.4227C21.8627 17.731 21.6437 18.4418 21.4606 18.9145C21.2167 19.5409 20.9264 19.9875 20.4569 20.4569C19.9875 20.9264 19.5402 21.2167 18.9138 21.4606C18.4411 21.645 17.7304 21.8627 16.422 21.9222C15.0078 21.9869 14.5828 22 10.9997 22C7.4179 22 6.9929 21.9876 5.57863 21.9222" fill="url(#paint1_radial)"/>
<path d="M8.29902 11.0469C8.29902 9.5423 9.51838 8.32229 11.0229 8.32229C12.5275 8.32229 13.7475 9.5423 13.7475 11.0469C13.7475 12.5514 12.5275 13.7715 11.0229 13.7715C9.51838 13.7715 8.29902 12.5514 8.29902 11.0469V11.0469ZM6.82616 11.0469C6.82616 13.3648 8.70506 15.2437 11.0229 15.2437C13.3408 15.2437 15.2197 13.3648 15.2197 11.0469C15.2197 8.72898 13.3408 6.85009 11.0229 6.85009C8.70506 6.85009 6.82623 8.72885 6.82623 11.0469H6.82616ZM14.4052 6.68368C14.4051 6.87766 14.4625 7.06731 14.5702 7.22864C14.6779 7.38997 14.8311 7.51573 15.0103 7.59004C15.1894 7.66434 15.3866 7.68384 15.5769 7.64608C15.7672 7.60831 15.942 7.51497 16.0792 7.37786C16.2164 7.24075 16.3099 7.06603 16.3478 6.8758C16.3857 6.68556 16.3664 6.48835 16.2922 6.30911C16.218 6.12987 16.0924 5.97664 15.9312 5.86881C15.7699 5.76098 15.5803 5.70338 15.3863 5.7033H15.3859C15.1259 5.70342 14.8766 5.80674 14.6927 5.99056C14.5088 6.17438 14.4054 6.42367 14.4052 6.68368V6.68368ZM7.72102 17.6996C6.92417 17.6633 6.49106 17.5306 6.20324 17.4185C5.82165 17.2699 5.54939 17.093 5.26314 16.8071C4.97688 16.5213 4.79969 16.2493 4.65179 15.8677C4.53959 15.58 4.40686 15.1468 4.37064 14.3499C4.33101 13.4884 4.3231 13.2296 4.3231 11.047C4.3231 8.86439 4.33167 8.60632 4.37064 7.74409C4.40693 6.94725 4.54064 6.51486 4.65179 6.22632C4.80035 5.84473 4.97728 5.57247 5.26314 5.28621C5.549 4.99996 5.821 4.82277 6.20324 4.67487C6.49093 4.56267 6.92417 4.42994 7.72102 4.39371C8.58253 4.35409 8.84132 4.34618 11.0229 4.34618C13.2046 4.34618 13.4636 4.35461 14.3259 4.39384C15.1227 4.43013 15.5551 4.56384 15.8436 4.675C16.2252 4.8229 16.4975 5.00048 16.7837 5.28634C17.07 5.57221 17.2465 5.84486 17.3951 6.22645C17.5073 6.51414 17.64 6.94738 17.6762 7.74422C17.7159 8.60645 17.7238 8.86452 17.7238 11.0471C17.7238 13.2297 17.7159 13.4878 17.6762 14.35C17.6399 15.1469 17.5066 15.58 17.3951 15.8678C17.2465 16.2494 17.0696 16.5217 16.7837 16.8073C16.4979 17.0929 16.2252 17.2701 15.8436 17.4186C15.5559 17.5308 15.1227 17.6635 14.3259 17.6998C13.4643 17.7394 13.2056 17.7473 11.0229 17.7473C8.84034 17.7473 8.58226 17.7394 7.72102 17.6998V17.6996ZM7.65334 2.92328C6.78327 2.9629 6.18872 3.10086 5.6695 3.3029C5.13211 3.51154 4.67657 3.79145 4.22169 4.24562C3.76681 4.69978 3.48762 5.15538 3.27897 5.69343C3.07693 6.21298 2.93897 6.80719 2.89935 7.67727C2.85907 8.54872 2.84985 8.82732 2.84985 11.0469C2.84985 13.2664 2.85907 13.545 2.89935 14.4165C2.93897 15.2866 3.07693 15.8808 3.27897 16.4003C3.48762 16.9377 3.76687 17.3942 4.22169 17.8481C4.67651 18.3021 5.13145 18.5816 5.6695 18.7908C6.18971 18.9929 6.78327 19.1308 7.65334 19.1705C8.52525 19.2101 8.80339 19.22 11.0229 19.22C13.2425 19.22 13.5211 19.2107 14.3925 19.1705C15.2627 19.1308 15.8568 18.9929 16.3764 18.7908C16.9138 18.5816 17.3693 18.3023 17.8242 17.8481C18.2791 17.394 18.5577 16.9377 18.7669 16.4003C18.969 15.8808 19.1076 15.2865 19.1465 14.4165C19.1862 13.5444 19.1954 13.2664 19.1954 11.0469C19.1954 8.82732 19.1862 8.54872 19.1465 7.67727C19.1069 6.80713 18.969 6.21265 18.7669 5.69343C18.5577 5.15603 18.2784 4.7005 17.8242 4.24562C17.37 3.79073 16.9138 3.51154 16.377 3.3029C15.8568 3.10086 15.2626 2.96224 14.3932 2.92328C13.5216 2.88346 13.2431 2.87378 11.0239 2.87378C8.8047 2.87378 8.52558 2.883 7.65367 2.92328" fill="white"/>
<defs>
<radialGradient id="paint0_radial" cx="0" cy="0" r="1" gradientUnits="userSpaceOnUse" gradientTransform="translate(1.42382 21.518) scale(27.9318)">
<stop offset="0.09" stop-color="#FA8F21"/>
<stop offset="0.78" stop-color="#D82D7E"/>
</radialGradient>
<radialGradient id="paint1_radial" cx="0" cy="0" r="1" gradientUnits="userSpaceOnUse" gradientTransform="translate(15.2386 20.8116) scale(24.5803)">
<stop offset="0.64" stop-color="#8C3AAA" stop-opacity="0"/>
<stop offset="1" stop-color="#8C3AAA"/>
</radialGradient>
</defs>
</svg>
