<svg width="22" height="22" viewBox="0 0 22 22" fill="none" xmlns="http://www.w3.org/2000/svg">
<path d="M0 1.57592C0 0.706062 0.728234 0 1.62594 0H20.3741C21.2721 0 22 0.706062 22 1.57592V20.4243C22 21.2945 21.2721 22 20.3741 22H1.62594C0.72832 22 0 21.2945 0 20.4246V1.57566V1.57592Z" fill="#006699"/>
<path d="M6.6856 18.411V8.50657H3.39351V18.411H6.68595H6.6856ZM5.04024 7.15452C6.18803 7.15452 6.9026 6.39397 6.9026 5.4435C6.88111 4.47138 6.18803 3.73206 5.06207 3.73206C3.93535 3.73206 3.19946 4.47138 3.19946 5.44341C3.19946 6.39388 3.91378 7.15443 5.01867 7.15443H5.03999L5.04024 7.15452ZM8.50782 18.411H11.7997V12.8805C11.7997 12.5849 11.8211 12.2885 11.9081 12.0774C12.146 11.4857 12.6877 10.8732 13.5973 10.8732C14.7882 10.8732 15.2649 11.7814 15.2649 13.113V18.411H18.5567V12.7321C18.5567 9.69002 16.9328 8.27437 14.7669 8.27437C12.9912 8.27437 12.2113 9.26686 11.778 9.94284H11.7999V8.50691H8.50799C8.55096 9.43607 8.50774 18.4114 8.50774 18.4114L8.50782 18.411Z" fill="white"/>
</svg>
