<svg width="43" height="43" viewBox="0 0 43 43" fill="none" xmlns="http://www.w3.org/2000/svg">
<path d="M30.7318 27.044H28.7896L28.1012 26.3802C30.5106 23.5775 31.9611 19.9388 31.9611 15.9806C31.9611 7.15437 24.8067 0 15.9806 0C7.15437 0 0 7.15437 0 15.9806C0 24.8067 7.15437 31.9611 15.9806 31.9611C19.9388 31.9611 23.5775 30.5106 26.3802 28.1012L27.044 28.7896V30.7318L39.3368 43L43 39.3368L30.7318 27.044V27.044ZM15.9806 27.044C9.85878 27.044 4.9171 22.1023 4.9171 15.9806C4.9171 9.85878 9.85878 4.9171 15.9806 4.9171C22.1023 4.9171 27.044 9.85878 27.044 15.9806C27.044 22.1023 22.1023 27.044 15.9806 27.044Z" fill="#CCCCCC"/>
</svg>
