<svg width="22" height="16" viewBox="0 0 22 16" fill="none" xmlns="http://www.w3.org/2000/svg">
<path d="M14.6485 7.51009C12.6311 6.4319 10.6996 5.44067 8.7251 4.40576V10.5969C10.8028 9.46724 12.9928 8.43273 14.657 7.51009H14.6485V7.51009Z" fill="white"/>
<path d="M14.657 7.51597C12.6368 6.43574 8.7251 4.40576 8.7251 4.40576L13.9404 7.91313C13.9408 7.91313 12.9904 8.44036 14.657 7.51597Z" fill="#E8E0E0"/>
<path d="M9.1114 15.4442C4.9216 15.367 3.49057 15.2975 2.61098 15.1162C2.01588 14.9957 1.49873 14.7281 1.11955 14.34C0.826487 14.0463 0.593426 13.5982 0.412609 12.9765C0.257507 12.4585 0.197098 12.0276 0.110976 10.9749C-0.0208615 8.59912 -0.0522901 6.65675 0.110976 4.48645C0.24567 3.28794 0.310976 1.86517 1.20567 1.03511C1.62812 0.64664 2.11955 0.396644 2.67139 0.293296C3.53343 0.129491 7.20609 0 11.0081 0C14.8016 0 18.4824 0.129491 19.3453 0.293296C20.0347 0.422787 20.6812 0.810852 21.0608 1.31125C21.8771 2.59636 21.8914 4.19437 21.9743 5.44435C22.0086 6.03993 22.0086 9.42182 21.9743 10.0174C21.8453 11.9929 21.7416 12.6918 21.4486 13.4164C21.2673 13.874 21.1127 14.1154 20.8449 14.3829C20.425 14.7947 19.8896 15.0685 19.3102 15.1681C15.6845 15.4409 12.6057 15.5002 9.1114 15.4442ZM14.6637 7.50641C12.6465 6.42759 10.7151 5.4272 8.74079 4.39168V10.5868C10.8183 9.45654 13.0086 8.42102 14.6722 7.49783L14.6637 7.50641Z" fill="#CD201F"/>
</svg>
